<?xml version="1.0" encoding="UTF-8" standalone="no"?>
<!-- Generator: Adobe Illustrator 16.0.0, SVG Export Plug-In . SVG Version: 6.00 Build 0)  -->

<svg
   xmlns:osb="http://www.openswatchbook.org/uri/2009/osb"
   xmlns:dc="http://purl.org/dc/elements/1.1/"
   xmlns:cc="http://creativecommons.org/ns#"
   xmlns:rdf="http://www.w3.org/1999/02/22-rdf-syntax-ns#"
   xmlns:svg="http://www.w3.org/2000/svg"
   xmlns="http://www.w3.org/2000/svg"
   xmlns:sodipodi="http://sodipodi.sourceforge.net/DTD/sodipodi-0.dtd"
   xmlns:inkscape="http://www.inkscape.org/namespaces/inkscape"
   version="1.1"
   id="Capa_1"
   x="0px"
   y="0px"
   width="512px"
   height="512px"
   viewBox="0 0 536.071 536.07"
   style="enable-background:new 0 0 536.071 536.07;"
   xml:space="preserve"
   inkscape:version="0.91 r13725"
   sodipodi:docname="zonafide-logo.svg"><metadata
     id="metadata3495"><rdf:RDF><cc:Work
         rdf:about=""><dc:format>image/svg+xml</dc:format><dc:type
           rdf:resource="http://purl.org/dc/dcmitype/StillImage" /><dc:title /></cc:Work></rdf:RDF></metadata><defs
     id="defs3493"><linearGradient
       id="linearGradient4303"
       osb:paint="solid"><stop
         style="stop-color:#33c3f0;stop-opacity:1;"
         offset="0"
         id="stop4305" /></linearGradient></defs><sodipodi:namedview
     pagecolor="#ffffff"
     bordercolor="#666666"
     borderopacity="1"
     objecttolerance="10"
     gridtolerance="10"
     guidetolerance="10"
     inkscape:pageopacity="0"
     inkscape:pageshadow="2"
     inkscape:window-width="1406"
     inkscape:window-height="855"
     id="namedview3491"
     showgrid="false"
     inkscape:zoom="1"
     inkscape:cx="312.21899"
     inkscape:cy="278.18149"
     inkscape:window-x="0"
     inkscape:window-y="0"
     inkscape:window-maximized="0"
     inkscape:current-layer="g3457" /><g
     id="g3457"><path
       d="m 147.128,91.076 c 0,-37.95 30.766,-68.716 68.721,-68.716 37.95,0 68.719,30.766 68.719,68.716 0,37.95 -30.769,68.715 -68.719,68.715 -37.955,0.001 -68.721,-30.765 -68.721,-68.715 z m 101.745,115.531 c 0.689,-14.963 5.84,-28.812 14.127,-40.261 -5.816,-1.218 -11.827,-1.865 -17.995,-1.865 l -58.304,0 c -6.15,0 -12.153,0.642 -17.939,1.845 8.819,12.232 14.094,27.171 14.18,43.343 10.72,-5.896 23.02,-9.253 36.085,-9.253 10.598,0 20.687,2.208 29.846,6.191 z m 11.632,6.168 c 19.96,12.517 33.957,33.688 36.517,58.274 8.133,3.801 17.171,5.994 26.746,5.994 34.968,0 63.311,-28.346 63.311,-63.313 0,-34.971 -28.343,-63.311 -63.311,-63.311 -34.648,10e-4 -62.737,27.838 -63.263,62.356 z m -41.479,129.636 c 34.962,0 63.307,-28.354 63.307,-63.311 0,-34.962 -28.345,-63.311 -63.307,-63.311 -34.965,0 -63.322,28.348 -63.322,63.311 0.001,34.957 28.357,63.311 63.322,63.311 z m 26.856,4.309 -53.717,0 c -13.61169,0 -38.70767,-3.87978 -32.49169,8.27979 11.95277,23.38179 -9.97988,51.31666 -41.72114,41.1489 -12.57934,-4.02957 -6.85617,17.52725 -6.85617,31.64331 l 0,65.703 0.171,1.029 4.522,1.406 c 42.658,13.323 79.718,17.779 110.224,17.779 59.571,0 94.114,-16.987 96.242,-18.074 l 4.231,-2.141 0.449,0 0,-65.703 c 2.8e-4,-12.69478 6.50262,-39.53169 -8.15307,-35.4261 -36.62181,10.2591 -56.02187,-28.44224 -47.6087,-41.60577 C 275.68678,343.69707 254.71001,346.72 245.882,346.72 Z m 104.756,-65.356 -53.314,0 c -0.579,21.332 -9.683,40.542 -24.081,54.35 39.732,11.815 68.802,48.657 68.802,92.178 l 0,20.245 c 52.629,-1.938 82.963,-16.846 84.961,-17.851 l 4.232,-2.152 0.449,0 0,-65.715 c 0.002,-14.74255 1.722,-46.1188 -10.86175,-40.50281 -39.19791,17.4936 -47.78983,-24.96649 -44.81429,-36.48457 2.10355,-8.14268 -16.51572,-4.06762 -25.37296,-4.06762 z m 14.251,-132.295 c 19.961,12.519 33.957,33.691 36.511,58.277 8.134,3.801 17.171,5.99 26.746,5.99 34.975,0 63.316,-28.342 63.316,-63.304 0,-34.972 -28.342,-63.311 -63.316,-63.311 -34.643,-0.004 -62.73,27.839 -63.257,62.348 z m 90.121,68.589 -53.303,0 c -0.579,21.332 -9.682,40.542 -24.08,54.349 39.731,11.811 68.801,48.658 68.801,92.179 l 0,20.245 c 52.624,-1.934 82.964,-16.84 84.962,-17.852 l 4.226,-2.145 0.455,0 0,-65.723 c 0.002,-16.7229 -4.14125,-51.87624 -19.04069,-47.29708 -41.24595,12.67645 -39.79611,-22.19442 -35.63592,-38.67163 0,0 -21.30749,4.91571 -26.38439,4.91571 z m -347.073,59.386 c 12.386,0 23.903,-3.618 33.67,-9.777 3.106,-20.241 13.958,-37.932 29.454,-49.975 0.065,-1.188 0.174,-2.361 0.174,-3.561 0,-34.971 -28.351,-63.311 -63.298,-63.311 -34.977,0 -63.316,28.339 -63.316,63.311 0,34.973 28.338,63.313 63.316,63.313 z m 56.858,58.67 c -14.331,-13.742 -23.404,-32.847 -24.072,-54.055 -1.971,-0.147 -3.928,-0.295 -5.943,-0.295 l -53.711,0 c -8.600738,0 -22.056344,-5.68609 -23.487223,1.29756 -3.937977,19.21999 -10.543071,33.7631 -42.812897,20.01472 -1.340279,-0.57102 0,0 -3.799517,-0.32512 C -0.86535515,301.33848 0,337.07617 0,362.425 l 0,65.709 0.166,1.023 4.528,1.412 c 34.214,10.699 64.761,15.616 91.292,17.153 l 0,-19.837 c 0.005,-43.514 29.068,-80.362 68.809,-92.171 z"
       id="path3459"
       inkscape:connector-curvature="0"
       style="fill:#33c3f0"
       sodipodi:nodetypes="ssscsccssccscccssccssscsssssscccsccccssssccscccccsssccssccsccscccccssssccssssccsssssscccccc" /></g><g
     id="g3461" /><g
     id="g3463" /><g
     id="g3465" /><g
     id="g3467" /><g
     id="g3469" /><g
     id="g3471" /><g
     id="g3473" /><g
     id="g3475" /><g
     id="g3477" /><g
     id="g3479" /><g
     id="g3481" /><g
     id="g3483" /><g
     id="g3485" /><g
     id="g3487" /><g
     id="g3489" /></svg>