<?xml version="1.0" encoding="UTF-8" standalone="no"?>
<!-- Generator: Adobe Illustrator 16.0.0, SVG Export Plug-In . SVG Version: 6.00 Build 0)  -->

<svg
   xmlns:osb="http://www.openswatchbook.org/uri/2009/osb"
   xmlns:dc="http://purl.org/dc/elements/1.1/"
   xmlns:cc="http://creativecommons.org/ns#"
   xmlns:rdf="http://www.w3.org/1999/02/22-rdf-syntax-ns#"
   xmlns:svg="http://www.w3.org/2000/svg"
   xmlns="http://www.w3.org/2000/svg"
   xmlns:sodipodi="http://sodipodi.sourceforge.net/DTD/sodipodi-0.dtd"
   xmlns:inkscape="http://www.inkscape.org/namespaces/inkscape"
   version="1.1"
   id="Capa_1"
   x="0px"
   y="0px"
   width="1080"
   height="1440"
   viewBox="0 0 1130.7748 1507.697"
   xml:space="preserve"
   inkscape:version="0.91 r13725"
   sodipodi:docname="zonafide-splash.svg"><metadata
     id="metadata3495"><rdf:RDF><cc:Work
         rdf:about=""><dc:format>image/svg+xml</dc:format><dc:type
           rdf:resource="http://purl.org/dc/dcmitype/StillImage" /><dc:title></dc:title></cc:Work></rdf:RDF></metadata><defs
     id="defs3493"><linearGradient
       id="linearGradient4303"
       osb:paint="solid"><stop
         style="stop-color:#33c3f0;stop-opacity:1;"
         offset="0"
         id="stop4305" /></linearGradient></defs><sodipodi:namedview
     pagecolor="#ffffff"
     bordercolor="#666666"
     borderopacity="1"
     objecttolerance="10"
     gridtolerance="10"
     guidetolerance="10"
     inkscape:pageopacity="0"
     inkscape:pageshadow="2"
     inkscape:window-width="1406"
     inkscape:window-height="855"
     id="namedview3491"
     showgrid="false"
     inkscape:zoom="0.35355339"
     inkscape:cx="138.46195"
     inkscape:cy="617.59274"
     inkscape:window-x="18"
     inkscape:window-y="2"
     inkscape:window-maximized="0"
     inkscape:current-layer="g3457"
     units="px"
     borderlayer="true" /><g
     id="g3457"
     transform="translate(0,971.60974)"><rect
       style="opacity:1;fill:#33c3f0;fill-opacity:1;fill-rule:nonzero;stroke:none;stroke-width:4;stroke-miterlimit:4;stroke-dasharray:none;stroke-dashoffset:8.12342358;stroke-opacity:0"
       id="rect3390"
       width="1134.2169"
       height="1507.3536"
       x="-2.7694357e-05"
       y="-970.92462" /><path
       d="m 440.29182,-363.32791 c 0,-37.95 30.766,-68.716 68.721,-68.716 37.95,0 68.719,30.766 68.719,68.716 0,37.95 -30.769,68.715 -68.719,68.715 -37.955,10e-4 -68.721,-30.765 -68.721,-68.715 z m 101.745,115.531 c 0.689,-14.963 5.84,-28.812 14.127,-40.261 -5.816,-1.218 -11.827,-1.865 -17.995,-1.865 l -58.304,0 c -6.15,0 -12.153,0.642 -17.939,1.845 8.819,12.232 14.094,27.171 14.18,43.343 10.72,-5.896 23.02,-9.253 36.085,-9.253 10.598,0 20.687,2.208 29.846,6.191 z m 11.632,6.168 c 19.96,12.517 33.957,33.688 36.517,58.274 8.133,3.801 17.171,5.994 26.746,5.994 34.968,0 63.311,-28.346 63.311,-63.313 0,-34.971 -28.343,-63.311 -63.311,-63.311 -34.648,0.001 -62.737,27.838 -63.263,62.356 z m -41.479,129.636 c 34.962,0 63.307,-28.354 63.307,-63.311 0,-34.962 -28.345,-63.311 -63.307,-63.311 -34.965,0 -63.322,28.348 -63.322,63.311 0.001,34.957 28.357,63.311 63.322,63.311 z m 26.856,4.309 -53.717,0 c -13.61169,0 -38.70767,-3.87978 -32.49169,8.279787 11.95277,23.381773 -9.97988,51.316643 -41.72114,41.148883 -12.57934,-4.02957 -6.85617,17.52725 -6.85617,31.64331 l 0,65.703 0.171,1.029 4.522,1.406 c 42.658,13.323 79.718,17.779 110.224,17.779 59.571,0 94.114,-16.987 96.242,-18.074 l 4.231,-2.141 0.449,0 0,-65.703 c 2.8e-4,-12.69478 6.50262,-39.53169 -8.15307,-35.4261 -36.62181,10.2591 -56.02187,-28.442235 -47.6087,-41.60575 4.51355,-7.06206 -16.46322,-4.03913 -25.29123,-4.03913 z m 104.756,-65.356 -53.314,0 c -0.579,21.332 -9.683,40.542 -24.081,54.35 39.732,11.815 68.802,48.65698 68.802,92.17798 l 0,20.2450006 c 52.629,-1.9380003 82.963,-16.8460006 84.961,-17.8510006 l 4.232,-2.152 0.449,0 0,-65.714992 c 0.002,-14.742538 1.722,-46.118788 -10.86175,-40.502798 -39.19791,17.4936 -47.78983,-24.96649 -44.81429,-36.48457 2.10355,-8.14268 -16.51572,-4.06762 -25.37296,-4.06762 z m 14.251,-132.295 c 19.961,12.519 33.957,33.691 36.511,58.277 8.134,3.801 17.171,5.99 26.746,5.99 34.975,0 63.316,-28.342 63.316,-63.304 0,-34.972 -28.342,-63.311 -63.316,-63.311 -34.643,-0.004 -62.73,27.839 -63.257,62.348 z m 90.121,68.589 -53.303,0 c -0.579,21.332 -9.682,40.542 -24.08,54.349 39.731,11.811 68.801,48.658 68.801,92.178985 l 0,20.244995 c 52.624,-1.934 82.964,-16.840001 84.962,-17.851998 l 4.226,-2.144997 0.455,0 0,-65.722985 c 0.002,-16.7229 -4.14125,-51.87624 -19.04069,-47.29708 -41.24595,12.67645 -39.79611,-22.19442 -35.63592,-38.67163 0,0 -21.30749,4.91571 -26.38439,4.91571 z m -347.073,59.386 c 12.386,0 23.903,-3.618 33.67,-9.777 3.106,-20.241 13.958,-37.932 29.454,-49.975 0.065,-1.188 0.174,-2.361 0.174,-3.561 0,-34.971 -28.351,-63.311 -63.298,-63.311 -34.977,0 -63.316,28.339 -63.316,63.311 0,34.973 28.338,63.313 63.316,63.313 z m 56.858,58.67 c -14.331,-13.742 -23.404,-32.847 -24.072,-54.055 -1.971,-0.147 -3.928,-0.295 -5.943,-0.295 l -53.711,0 c -8.60073,0 -22.05634,-5.68609 -23.48722,1.29756 -3.93798,19.21999 -10.54307,33.7631 -42.8129,20.01472 -1.34027,-0.57102 0,0 -3.79951,-0.32512 -11.83472,-1.01268 -10.96937,34.72501 -10.96937,60.073828 l 0,65.708992 0.166,1.023 4.528,1.412 c 34.214,10.699 64.761,15.6160003 91.292,17.1530006 l 0,-19.8370006 c 0.005,-43.514 29.068,-80.36198 68.809,-92.17098 z"
       id="path3459"
       inkscape:connector-curvature="0"
       style="fill:#ffffff;fill-opacity:1"
       sodipodi:nodetypes="ssscsccssccscccssccssscsssssscccsccccssssccscccccsssccssccsccscccccssssccssssccsssssscccccc" /><text
       xml:space="preserve"
       style="font-style:normal;font-variant:normal;font-weight:normal;font-stretch:normal;font-size:70.47092438px;line-height:125%;font-family:HeadLineA;-inkscape-font-specification:HeadLineA;letter-spacing:0px;word-spacing:0px;fill:#ffffff;fill-opacity:1;stroke:none;stroke-width:1px;stroke-linecap:butt;stroke-linejoin:miter;stroke-opacity:1"
       x="207.01233"
       y="-547.90234"
       id="text3359"
       sodipodi:linespacing="125%"
       transform="scale(1.0674588,0.93680431)"><tspan
         sodipodi:role="line"
         id="tspan3361"
         x="207.01233"
         y="-547.90234"
         style="font-style:normal;font-variant:normal;font-weight:normal;font-stretch:normal;font-size:188.46246338px;font-family:HeadLineA;-inkscape-font-specification:HeadLineA;fill:#ffffff;fill-opacity:1">ZONAFIDE</tspan></text>
<text
       xml:space="preserve"
       style="font-style:normal;font-variant:normal;font-weight:normal;font-stretch:normal;font-size:41.88054657px;line-height:125%;font-family:HeadLineA;-inkscape-font-specification:HeadLineA;letter-spacing:0px;word-spacing:0px;fill:#ffffff;fill-opacity:1;stroke:none;stroke-width:1px;stroke-linecap:butt;stroke-linejoin:miter;stroke-opacity:1"
       x="861.03442"
       y="-628.68158"
       id="text3363"
       sodipodi:linespacing="125%"><tspan
         sodipodi:role="line"
         id="tspan3365"
         x="861.03442"
         y="-628.68158"
         style="font-style:normal;font-variant:normal;font-weight:normal;font-stretch:normal;font-size:83.76109314px;font-family:HeadLineA;-inkscape-font-specification:HeadLineA;fill:#ffffff;fill-opacity:1">®</tspan></text>
<text
       xml:space="preserve"
       style="font-style:normal;font-weight:normal;font-size:41.88054657px;line-height:125%;font-family:sans-serif;letter-spacing:0px;word-spacing:0px;fill:#ffffff;fill-opacity:1;stroke:none;stroke-width:1px;stroke-linecap:butt;stroke-linejoin:miter;stroke-opacity:1"
       x="174.72272"
       y="163.86194"
       id="text3367"
       sodipodi:linespacing="125%"><tspan
         sodipodi:role="line"
         id="tspan3369"
         x="174.72272"
         y="163.86194"
         style="font-style:normal;font-variant:normal;font-weight:900;font-stretch:normal;font-size:52.3506813px;font-family:'Arial Black';-inkscape-font-specification:'Arial Black, Heavy';fill:#ffffff;fill-opacity:1">Work together to stop fraud</tspan></text>
</g><g
     id="g3461"
     transform="translate(0,971.60974)" /><g
     id="g3463"
     transform="translate(0,971.60974)" /><g
     id="g3465"
     transform="translate(0,971.60974)" /><g
     id="g3467"
     transform="translate(0,971.60974)" /><g
     id="g3469"
     transform="translate(0,971.60974)" /><g
     id="g3471"
     transform="translate(0,971.60974)" /><g
     id="g3473"
     transform="translate(0,971.60974)" /><g
     id="g3475"
     transform="translate(0,971.60974)" /><g
     id="g3477"
     transform="translate(0,971.60974)" /><g
     id="g3479"
     transform="translate(0,971.60974)" /><g
     id="g3481"
     transform="translate(0,971.60974)" /><g
     id="g3483"
     transform="translate(0,971.60974)" /><g
     id="g3485"
     transform="translate(0,971.60974)" /><g
     id="g3487"
     transform="translate(0,971.60974)" /><g
     id="g3489"
     transform="translate(0,971.60974)" /></svg>