<?xml version="1.0" encoding="UTF-8" standalone="no"?>
<!-- Generator: Adobe Illustrator 16.0.0, SVG Export Plug-In . SVG Version: 6.00 Build 0)  -->

<svg
   xmlns:osb="http://www.openswatchbook.org/uri/2009/osb"
   xmlns:dc="http://purl.org/dc/elements/1.1/"
   xmlns:cc="http://creativecommons.org/ns#"
   xmlns:rdf="http://www.w3.org/1999/02/22-rdf-syntax-ns#"
   xmlns:svg="http://www.w3.org/2000/svg"
   xmlns="http://www.w3.org/2000/svg"
   xmlns:sodipodi="http://sodipodi.sourceforge.net/DTD/sodipodi-0.dtd"
   xmlns:inkscape="http://www.inkscape.org/namespaces/inkscape"
   version="1.1"
   id="Capa_1"
   x="0px"
   y="0px"
   width="1024"
   height="1024"
   viewBox="0 0 1072.142 1072.1401"
   xml:space="preserve"
   inkscape:version="0.91 r13725"
   sodipodi:docname="zonafide-icon-plain.svg"><metadata
     id="metadata3495"><rdf:RDF><cc:Work
         rdf:about=""><dc:format>image/svg+xml</dc:format><dc:type
           rdf:resource="http://purl.org/dc/dcmitype/StillImage" /><dc:title></dc:title></cc:Work></rdf:RDF></metadata><defs
     id="defs3493"><linearGradient
       id="linearGradient4303"
       osb:paint="solid"><stop
         style="stop-color:#33c3f0;stop-opacity:1;"
         offset="0"
         id="stop4305" /></linearGradient></defs><sodipodi:namedview
     pagecolor="#ffffff"
     bordercolor="#000000"
     borderopacity="0"
     objecttolerance="10"
     gridtolerance="10"
     guidetolerance="10"
     inkscape:pageopacity="0"
     inkscape:pageshadow="2"
     inkscape:window-width="1406"
     inkscape:window-height="855"
     id="namedview3491"
     showgrid="false"
     inkscape:zoom="0.3987504"
     inkscape:cx="517.92413"
     inkscape:cy="655.31032"
     inkscape:window-x="18"
     inkscape:window-y="2"
     inkscape:window-maximized="0"
     inkscape:current-layer="g3457"
     units="px"
     borderlayer="true"
     inkscape:showpageshadow="false" /><g
     id="g3457"
     transform="translate(0,536.05206)"><rect
       style="opacity:1;fill:#33c3f0;fill-opacity:1;fill-rule:nonzero;stroke:none;stroke-width:4;stroke-miterlimit:4;stroke-dasharray:none;stroke-dashoffset:8.12342358;stroke-opacity:0"
       id="rect3390"
       width="1123.0221"
       height="1035.0491"
       x="1.3803077"
       y="-522.89386" /><path
       d="m 372.59161,-310.72432 c 0,-66.12928 46.44721,-119.74017 103.7476,-119.74017 57.29284,0 103.74457,53.61089 103.74457,119.74017 0,66.12927 -46.45173,119.73841 -103.74457,119.73841 -57.30039,10e-4 -103.7476,-53.60914 -103.7476,-119.73841 z m 153.6037,201.31701 c 1.04017,-26.07357 8.81659,-50.20597 21.32742,-70.15627 -8.78037,-2.12241 -17.85514,-3.24983 -27.16692,-3.24983 l -88.02113,0 c -9.2846,0 -18.34729,1.11871 -27.08237,3.21498 13.31398,21.31471 21.2776,47.34646 21.40744,75.52677 16.1839,-10.27399 34.75312,-16.12368 54.47726,-16.12368 15.99973,0 31.23102,3.84751 45.0583,10.78803 z m 17.56073,10.747966 c 30.13347,21.81133 51.26464,58.70258 55.12945,101.5445903 12.27834,6.62339 25.92294,10.4447697 40.37825,10.4447697 52.79093,0 95.58015,-49.39395 95.58015,-110.32523 0,-60.938256 -42.78922,-110.321746 -95.58015,-110.321746 -52.30783,0.001 -94.71359,48.50873 -95.5077,108.657616 z M 481.1355,127.23616 c 52.78188,0 95.57413,-49.407904 95.57413,-110.321744 0,-60.92258 -42.79225,-110.32176 -95.57413,-110.32176 -52.7864,0 -95.59676,49.39744 -95.59676,110.32176 10e-4,60.91384 42.81036,110.321744 95.59676,110.321744 z m 40.5443,7.50859 -81.09616,0 c -20.54947,0 -58.43669,-6.76067 -49.05246,14.42783 18.04501,40.7436 -15.06656,89.42113 -62.9861,71.70345 -18.99094,-7.02169 -10.35071,30.54187 -10.35071,55.13962 l 0,114.48991 0.25815,1.79307 6.82684,2.44999 c 64.40046,23.21583 120.34968,30.98058 166.40436,30.98058 89.93391,0 142.08322,-29.60049 145.29585,-31.49462 l 6.38751,-3.73076 0.67786,0 0,-114.48991 c 4.2e-4,-22.12112 9.81695,-68.88542 -12.30863,-61.73128 -55.28769,17.87685 -84.57582,-49.56164 -71.87451,-72.49956 6.81407,-12.30589 -24.8544,-7.03832 -38.182,-7.03832 z m 158.14939,-113.885234 -80.48777,0 c -0.87411,37.17179 -14.61835,70.64591 -36.35491,94.706864 59.98312,20.58808 103.86988,84.78658 103.86988,160.62353 l 0,35.27766 c 79.45362,-3.37704 125.24865,-29.35478 128.26501,-31.10603 l 6.38902,-3.74994 0.67785,0 0,-114.51078 c 0.004,-25.68943 2.5997,-80.363704 -16.3979,-70.577624 -59.1768,30.483234 -72.14797,-43.50504 -67.65581,-63.5757 3.17571,-14.18892 -24.93367,-7.08798 -38.30537,-7.08798 z m 21.51463,-230.528906 c 30.13497,21.81482 51.26464,58.70782 55.12039,101.54982 12.27984,6.62338 25.92293,10.437786 40.37824,10.437786 52.8015,0 95.5877,-49.386966 95.5877,-110.309546 0,-60.94 -42.78771,-110.32175 -95.5877,-110.32175 -52.30029,-0.007 -94.70302,48.51049 -95.49863,108.64369 z m 136.05501,119.518856 -80.47114,0 c -0.87412,37.1718 -14.61685,70.64592 -36.35341,94.7051303 59.9816,20.5811097 103.86837,84.7883397 103.86837,160.6252737 l 0,35.27765 c 79.44607,-3.37007 125.25019,-29.34433 128.26649,-31.10776 l 6.38,-3.73774 0.6869,0 0,-114.524734 c 0,-29.14026 -6.252,-90.39625 -28.74559,-82.41688 -62.26871,22.0891803 -60.0799,-38.67461 -53.79929,-67.38674 0,0 -32.16777,8.5658 -39.83233,8.5658 z M 313.42524,13.331756 c 18.69906,0 36.08619,-6.3044997 50.83136,-17.0367897 4.68911,-35.2706703 21.07229,-66.0979003 44.46649,-87.0832703 0.0982,-2.07014 0.26268,-4.11413 0.26268,-6.20517 0,-60.938256 -42.8013,-110.321746 -95.56053,-110.321746 -52.80452,0 -95.5877,49.38175 -95.5877,110.321746 0,60.94174 42.78167,110.32523 95.5877,110.32523 z M 399.26336,115.56638 C 377.62794,91.620436 363.93051,58.329266 362.92204,21.373566 c -2.97561,-0.25615 -5.93008,-0.51405 -8.97211,-0.51405 l -81.08711,0 c -12.98446,0 -33.2983,-9.90823 -35.45849,2.26104 -5.94514,33.49154 -15.91679,58.83344 -64.63432,34.87638 -2.0234,-0.99503 0,0 -5.7361,-0.56653 -17.86679,-1.76463 -16.56037,60.509604 -16.56037,104.680864 l 0,114.50033 0.25061,1.78262 6.83588,2.46046 c 51.65264,18.64339 97.76922,27.21145 137.82288,29.88973 l 0,-34.5667 c 0.007,-75.82475 43.88375,-140.03371 103.88045,-160.61133 z"
       id="path3459"
       inkscape:connector-curvature="0"
       style="fill:#ffffff;fill-opacity:1"
       sodipodi:nodetypes="ssscsccssccscccssccssscsssssscccsccccssssccscccccsssccssccsccscccccssssccssssccsssssscccccc" /></g><g
     id="g3461"
     transform="translate(0,536.05206)" /><g
     id="g3463"
     transform="translate(0,536.05206)" /><g
     id="g3465"
     transform="translate(0,536.05206)" /><g
     id="g3467"
     transform="translate(0,536.05206)" /><g
     id="g3469"
     transform="translate(0,536.05206)" /><g
     id="g3471"
     transform="translate(0,536.05206)" /><g
     id="g3473"
     transform="translate(0,536.05206)" /><g
     id="g3475"
     transform="translate(0,536.05206)" /><g
     id="g3477"
     transform="translate(0,536.05206)" /><g
     id="g3479"
     transform="translate(0,536.05206)" /><g
     id="g3481"
     transform="translate(0,536.05206)" /><g
     id="g3483"
     transform="translate(0,536.05206)" /><g
     id="g3485"
     transform="translate(0,536.05206)" /><g
     id="g3487"
     transform="translate(0,536.05206)" /><g
     id="g3489"
     transform="translate(0,536.05206)" /></svg>